<svg xmlns="http://www.w3.org/2000/svg" viewBox="0 0 100 100"><path fill="#000" d="M69.9 48.3L99.0 50.0 69.9 51.7ZM69.7 53.5L97.3 62.7 68.8 56.8ZM68.1 58.5L92.4 74.5 66.4 61.4ZM65.3 62.9L84.6 84.6 62.9 65.3ZM61.4 66.4L74.5 92.4 58.5 68.1ZM56.8 68.8L62.7 97.3 53.5 69.7ZM51.7 69.9L50.0 99.0 48.3 69.9ZM46.5 69.7L37.3 97.3 43.2 68.8ZM41.5 68.1L25.5 92.4 38.6 66.4ZM37.1 65.3L15.4 84.6 34.7 62.9ZM33.6 61.4L7.6 74.5 31.9 58.5ZM31.2 56.8L2.7 62.7 30.3 53.5ZM30.1 51.7L1.0 50.0 30.1 48.3ZM30.3 46.5L2.7 37.3 31.2 43.2ZM31.9 41.5L7.6 25.5 33.6 38.6ZM34.7 37.1L15.4 15.4 37.1 34.7ZM38.6 33.6L25.5 7.6 41.5 31.9ZM43.2 31.2L37.3 2.7 46.5 30.3ZM48.3 30.1L50.0 1.0 51.7 30.1ZM53.5 30.3L62.7 2.7 56.8 31.2ZM58.5 31.9L74.5 7.6 61.4 33.6ZM62.9 34.7L84.6 15.4 65.3 37.1ZM66.4 38.6L92.4 25.5 68.1 41.5ZM68.8 43.2L97.3 37.3 69.7 46.5Z"/><circle cx="50" cy="50" r="13" fill="#000"/></svg>
